<svg xmlns="http://www.w3.org/2000/svg" xml:space="preserve" width="800" height="800" viewBox="0 0 25.263 25.263"><path d="M15.362 9.69s-.75 1.108-1.068 0-1.346-4.949-1.762-5.226l-.417-.278s-.078 1.506-.594 1.307c-.515-.198-4.313-2.217-4.63-2.652l-.317-.397s.355 3.328-.515 2.615c0 0 1.113 2.771-2.573 3.048 0 0 1.186 3.087 4.552 4.75 0 0 1.148 1.783-.949 1.503 0 0-2.932-.395-3.325-.752 0 0-1.548 3.01-3.764 3.128 0 0 2.656 1.504 2.337 4.156 0 0 5.107.041 4.911.832-.2.795-.555 1.601-.555 1.601s4.71-.929 5.422-2.194c0 0 .989.99 1.071 1.939 0 0 2.693-.594 2.452-2.296 0 0 1.269.948 1.427 2.551l.554-.375s-.319-1.661-1.464-2.967c0 0-.517-1.308.789-.633 0 0 3.085 1.029 5.7-.833 0 0-2.888-.948-3.006-1.978 0 0 5.394-3.326 5.625-5.542 0 0-1.944.198-2.972-.633 0 0-1.309-.396.394-4.791 0 0-1.227.724-1.62-3.636 0 0-3.051 4.665-4.518 3.082.001-.001-1.382 3.047-1.185 4.671" style="fill:#030104"/></svg>