<svg width="97" height="93" viewBox="0 0 97 93" fill="none" xmlns="http://www.w3.org/2000/svg">
<path d="M46.5003 6L46.7021 3.65868L46.4033 3.63292L46.1075 3.68304L46.5003 6ZM48.5003 64L48.5438 66.3496L48.6814 66.347L48.8178 66.3285L48.5003 64ZM15.5003 38L13.1539 37.8696L13.1356 38.1981L13.2083 38.5189L15.5003 38ZM17.3956 44L19.5655 43.0977L19.5655 43.0977L17.3956 44ZM28.0002 78L29.5573 76.2399L26.3385 79.6617L28.0002 78ZM74.5002 50.9521L72.633 49.5252L72.633 49.5252L74.5002 50.9521ZM67.5002 78L67.2499 75.6634L67.1095 75.6784L66.9718 75.7102L67.5002 78ZM81.5002 76.5L82.9884 78.3188L89.0945 73.3229L81.2499 74.1634L81.5002 76.5ZM70.5002 85.5L68.5449 84.1965L71.9884 87.3188L70.5002 85.5ZM90.5002 64L92.4796 65.2668L92.8502 64.6876V64H90.5002ZM25.8806 38.7973C24.9402 39.6918 24.903 41.1793 25.7975 42.1197C26.692 43.06 28.1795 43.0972 29.1199 42.2027L25.8806 38.7973ZM48.0002 21L49.6619 19.3383C48.7604 18.4367 47.3044 18.4185 46.3806 19.2973L48.0002 21ZM65.8385 42.1617C66.7563 43.0794 68.2442 43.0794 69.1619 42.1617C70.0797 41.244 70.0797 39.756 69.1619 38.8383L65.8385 42.1617ZM64.3502 24C64.3502 22.7021 63.2981 21.65 62.0002 21.65C60.7024 21.65 59.6502 22.7021 59.6502 24H64.3502ZM17.8466 38.1304C17.8845 37.4493 17.9644 36.69 18.0945 35.8671L13.4522 35.1329C13.2991 36.101 13.2011 37.0187 13.1539 37.8696L17.8466 38.1304ZM13.8414 34.1621C9.5255 40.3941 3.47804 57.2745 11.8379 76.9202L16.1626 75.0798C8.52246 57.1255 14.1725 41.9392 17.7053 36.8379L13.8414 34.1621ZM18.0945 35.8671C19.021 30.0096 22.3952 21.4821 30.247 15.3524L27.3549 11.6476C18.3553 18.6733 14.5186 28.3905 13.4522 35.1329L18.0945 35.8671ZM30.247 15.3524C34.3791 12.1266 39.8061 9.51812 46.893 8.31696L46.1075 3.68304C38.2744 5.01069 32.1188 7.9286 27.3549 11.6476L30.247 15.3524ZM27.6025 11.4786C23.1526 14.1168 16.5972 19.283 11.1307 26.3353C5.66081 33.3919 1.15024 42.5113 1.15024 53H5.85024C5.85024 43.8886 9.77325 35.7581 14.8454 29.2147C19.9208 22.667 26.0158 17.8832 29.9994 15.5214L27.6025 11.4786ZM48.4567 61.6504C40.8885 61.7906 25.7677 58.0125 19.5655 43.0977L15.2257 44.9023C22.4645 62.3096 39.9506 66.5087 48.5438 66.3496L48.4567 61.6504ZM19.5655 43.0977C18.854 41.3869 18.2537 39.5194 17.7922 37.4811L13.2083 38.5189C13.7273 40.8115 14.4081 42.9361 15.2257 44.9023L19.5655 43.0977ZM39.5512 92.1019C40.1423 91.8064 40.5676 91.2989 40.7713 90.7122C40.9489 90.2009 40.9182 89.752 40.8815 89.5011C40.8111 89.0197 40.6187 88.6293 40.5181 88.4371C40.285 87.9917 39.9411 87.5088 39.601 87.0653C38.8915 86.1401 37.8592 84.9528 36.7267 83.7069C34.4462 81.1979 31.5925 78.2689 29.6619 76.3383L26.3385 79.6617C28.2413 81.5644 31.0376 84.4355 33.2488 86.8681C34.3621 88.0931 35.286 89.162 35.8713 89.9253C36.1787 90.3261 36.3168 90.5456 36.3539 90.6164C36.3884 90.6824 36.2781 90.5035 36.231 90.1817C36.206 90.0106 36.1723 89.6286 36.3314 89.1704C36.5168 88.6367 36.9082 88.1686 37.4493 87.8981L39.5512 92.1019ZM26.4432 79.7601L36.9432 89.0486L40.0573 85.5283L29.5573 76.2399L26.4432 79.7601ZM36.9432 89.0486L39.4432 91.2601L42.5573 87.7399L40.0573 85.5283L36.9432 89.0486ZM77.1584 35.6952C77.4369 39.038 76.5047 44.4584 72.633 49.5252L76.3675 52.3789C80.9811 46.3412 82.2127 39.752 81.8421 35.3048L77.1584 35.6952ZM72.633 49.5252C68.5996 54.8037 61.2208 59.8936 48.1827 61.6715L48.8178 66.3285C62.8726 64.4119 71.4581 58.8037 76.3675 52.3789L72.633 49.5252ZM39.6332 89.3473C45.174 86.2983 53.6247 80.8071 61.0751 74.1757C68.4216 67.637 75.253 59.5936 76.8091 51.39L72.1914 50.5141C70.9475 57.0722 65.1956 64.2163 57.9503 70.665C50.8091 77.021 42.6598 82.3172 37.3673 85.2296L39.6332 89.3473ZM15.1964 43.1718C13.6359 47.3159 13.745 52.1544 14.8093 57.0038L19.4 55.9962C18.4429 51.6353 18.4735 47.8061 19.5948 44.8282L15.1964 43.1718ZM14.8093 57.0038C16.225 63.4545 19.4101 70.2947 23.3151 76.3467C27.2183 82.3959 31.9447 87.8186 36.5704 91.365L39.4301 87.635C35.3428 84.5015 30.9609 79.5275 27.2643 73.7985C23.5695 68.0721 20.6633 61.7523 19.4 55.9962L14.8093 57.0038ZM15.2427 57.9338C20.785 65.1312 30.5442 71.4589 40.4159 75.6042C45.3841 77.6904 50.4675 79.2613 55.184 80.1169C59.868 80.9667 64.3459 81.1397 68.0287 80.2898L66.9718 75.7102C64.1546 76.3603 60.3825 76.2833 56.0229 75.4924C51.6957 74.7074 46.942 73.2471 42.2356 71.2708C32.7585 67.2911 23.8199 61.3688 18.9666 55.0662L15.2427 57.9338ZM67.7506 80.3366L81.7506 78.8366L81.2499 74.1634L67.2499 75.6634L67.7506 80.3366ZM80.0121 74.6812L69.0121 83.6812L71.9884 87.3188L82.9884 78.3188L80.0121 74.6812ZM72.4556 86.8035C76.7046 80.4299 80.282 69.8304 82.184 59.8134C83.1412 54.7722 83.6947 49.7738 83.6784 45.4131C83.6624 41.14 83.1021 37.1444 81.5545 34.3587L77.446 36.6413C78.3984 38.3556 78.9631 41.36 78.9784 45.4307C78.9933 49.4137 78.4843 54.1028 77.5665 58.9366C75.7185 68.6696 72.2959 78.5701 68.5449 84.1965L72.4556 86.8035ZM46.2984 8.34132C53.6987 8.97927 67.4312 13.5108 73.9243 25.7496L78.0762 23.5469C70.5397 9.34141 54.9394 4.3688 46.7021 3.65868L46.2984 8.34132ZM73.9243 25.7496C75.4552 28.6352 76.6026 31.9767 77.1756 35.8444L81.8249 35.1556C81.1745 30.7653 79.861 26.911 78.0762 23.5469L73.9243 25.7496ZM74.7816 26.6576C78.1439 28.6967 81.517 33.2279 84.0556 39.8588C86.5671 46.4188 88.1502 54.7553 88.1502 64H92.8502C92.8502 54.2447 91.1834 45.3312 88.4449 38.1783C85.7335 31.0962 81.8565 25.4515 77.2189 22.6389L74.7816 26.6576ZM88.5209 62.7332C87.2608 64.7021 85.0831 67.5825 82.7027 69.789C81.5108 70.8938 80.3516 71.7511 79.306 72.262C78.2479 72.7791 77.531 72.8354 77.0702 72.7202L75.9303 77.2798C77.8695 77.7646 79.7693 77.2667 81.3695 76.4849C82.9822 75.6968 84.523 74.5103 85.8978 73.236C88.6507 70.6842 91.073 67.4646 92.4796 65.2668L88.5209 62.7332ZM29.1199 42.2027L49.6199 22.7027L46.3806 19.2973L25.8806 38.7973L29.1199 42.2027ZM46.3385 22.6617L65.8385 42.1617L69.1619 38.8383L49.6619 19.3383L46.3385 22.6617ZM62.6619 33.6617C63.0576 33.266 63.2318 32.8175 63.2824 32.6883C63.3631 32.4819 63.4218 32.276 63.4648 32.1064C63.5521 31.7616 63.6257 31.3605 63.6887 30.9618C63.8164 30.153 63.931 29.1536 64.0262 28.1948C64.2116 26.3292 64.3502 24.3367 64.3502 24H59.6502C59.6502 23.9889 59.6291 24.3958 59.5709 25.1728C59.5173 25.8882 59.4407 26.8094 59.3493 27.7302C59.257 28.6589 59.1529 29.5533 59.0462 30.2288C58.9919 30.5723 58.9445 30.811 58.9088 30.9518C58.8902 31.025 58.8869 31.0232 58.9054 30.976C58.9151 30.9511 58.9425 30.8836 58.9926 30.7933C59.0357 30.7157 59.1432 30.5336 59.3385 30.3383L62.6619 33.6617Z" fill="#4F3120"/>
<path d="M94.5002 46.5C94.5002 70.7024 74.0056 90.5 48.5002 90.5C22.9949 90.5 2.50024 70.7024 2.50024 46.5C2.50024 22.2976 22.9949 2.5 48.5002 2.5C74.0056 2.5 94.5002 22.2976 94.5002 46.5Z" stroke="#4F3120" stroke-width="5"/>
<circle cx="45.0002" cy="40" r="3" fill="#4F3120"/>
<circle cx="52.0002" cy="40" r="3" fill="#4F3120"/>
<circle cx="52.0002" cy="49" r="3" fill="#4F3120"/>
<circle cx="45.0002" cy="49" r="3" fill="#4F3120"/>
</svg>
