<svg width="97" height="93" viewBox="0 0 97 93" fill="none" xmlns="http://www.w3.org/2000/svg">
<path d="M46.5 6L46.7018 3.65868L46.403 3.63292L46.1073 3.68304L46.5 6ZM48.5 64L48.5435 66.3496L48.6811 66.347L48.8175 66.3285L48.5 64ZM15.5 38L13.1536 37.8696L13.1354 38.1981L13.208 38.5189L15.5 38ZM17.3954 44L19.5652 43.0977L19.5652 43.0977L17.3954 44ZM28 78L29.557 76.2399L26.3383 79.6617L28 78ZM74.5 50.9521L72.6327 49.5252L72.6327 49.5252L74.5 50.9521ZM67.5 78L67.2496 75.6634L67.1092 75.6784L66.9716 75.7102L67.5 78ZM81.5 76.5L82.9881 78.3188L89.0942 73.3229L81.2496 74.1634L81.5 76.5ZM70.5 85.5L68.5447 84.1965L71.9881 87.3188L70.5 85.5ZM90.5 64L92.4793 65.2668L92.85 64.6876V64H90.5ZM25.8803 38.7973C24.94 39.6918 24.9028 41.1793 25.7973 42.1197C26.6918 43.06 28.1793 43.0972 29.1197 42.2027L25.8803 38.7973ZM48 21L49.6617 19.3383C48.7601 18.4367 47.3042 18.4185 46.3803 19.2973L48 21ZM65.8383 42.1617C66.756 43.0794 68.244 43.0794 69.1617 42.1617C70.0794 41.244 70.0794 39.756 69.1617 38.8383L65.8383 42.1617ZM64.35 24C64.35 22.7021 63.2979 21.65 62 21.65C60.7021 21.65 59.65 22.7021 59.65 24H64.35ZM17.8464 38.1304C17.8842 37.4493 17.9641 36.69 18.0943 35.8671L13.452 35.1329C13.2988 36.101 13.2009 37.0187 13.1536 37.8696L17.8464 38.1304ZM13.8412 34.1621C9.52525 40.3941 3.4778 57.2745 11.8376 76.9202L16.1624 75.0798C8.52222 57.1255 14.1722 41.9392 17.7051 36.8379L13.8412 34.1621ZM18.0943 35.8671C19.0207 30.0096 22.3949 21.4821 30.2468 15.3524L27.3546 11.6476C18.355 18.6733 14.5184 28.3905 13.452 35.1329L18.0943 35.8671ZM30.2468 15.3524C34.3789 12.1266 39.8058 9.51812 46.8927 8.31696L46.1073 3.68304C38.2742 5.01069 32.1185 7.9286 27.3546 11.6476L30.2468 15.3524ZM27.6023 11.4786C23.1523 14.1168 16.5969 19.283 11.1304 26.3353C5.66057 33.3919 1.15 42.5113 1.15 53H5.85C5.85 43.8886 9.773 35.7581 14.8451 29.2147C19.9205 22.667 26.0155 17.8832 29.9991 15.5214L27.6023 11.4786ZM48.4565 61.6504C40.8882 61.7906 25.7675 58.0125 19.5652 43.0977L15.2255 44.9023C22.4642 62.3096 39.9504 66.5087 48.5435 66.3496L48.4565 61.6504ZM19.5652 43.0977C18.8538 41.3869 18.2535 39.5194 17.792 37.4811L13.208 38.5189C13.7271 40.8115 14.4078 42.9361 15.2255 44.9023L19.5652 43.0977ZM39.551 92.1019C40.142 91.8064 40.5673 91.2989 40.7711 90.7122C40.9487 90.2009 40.918 89.752 40.8813 89.5011C40.8108 89.0197 40.6184 88.6293 40.5179 88.4371C40.2847 87.9917 39.9408 87.5088 39.6008 87.0653C38.8913 86.1401 37.8589 84.9528 36.7265 83.7069C34.446 81.1979 31.5923 78.2689 29.6617 76.3383L26.3383 79.6617C28.241 81.5644 31.0374 84.4355 33.2485 86.8681C34.3619 88.0931 35.2858 89.162 35.8711 89.9253C36.1784 90.3261 36.3166 90.5456 36.3536 90.6164C36.3882 90.6824 36.2779 90.5035 36.2308 90.1817C36.2058 90.0106 36.1721 89.6286 36.3312 89.1704C36.5165 88.6367 36.908 88.1686 37.449 87.8981L39.551 92.1019ZM26.443 79.7601L36.943 89.0486L40.057 85.5283L29.557 76.2399L26.443 79.7601ZM36.943 89.0486L39.443 91.2601L42.557 87.7399L40.057 85.5283L36.943 89.0486ZM77.1581 35.6952C77.4367 39.038 76.5045 44.4584 72.6327 49.5252L76.3673 52.3789C80.9809 46.3412 82.2125 39.752 81.8419 35.3048L77.1581 35.6952ZM72.6327 49.5252C68.5993 54.8037 61.2205 59.8936 48.1825 61.6715L48.8175 66.3285C62.8724 64.4119 71.4579 58.8037 76.3673 52.3789L72.6327 49.5252ZM39.633 89.3473C45.1737 86.2983 53.6244 80.8071 61.0749 74.1757C68.4214 67.637 75.2528 59.5936 76.8088 51.39L72.1912 50.5141C70.9472 57.0722 65.1953 64.2163 57.9501 70.665C50.8089 77.021 42.6596 82.3172 37.367 85.2296L39.633 89.3473ZM15.1961 43.1718C13.6356 47.3159 13.7448 52.1544 14.809 57.0038L19.3998 55.9962C18.4427 51.6353 18.4732 47.8061 19.5946 44.8282L15.1961 43.1718ZM14.809 57.0038C16.2247 63.4545 19.4099 70.2947 23.3148 76.3467C27.218 82.3959 31.9445 87.8186 36.5702 91.365L39.4298 87.635C35.3426 84.5015 30.9607 79.5275 27.2641 73.7985C23.5692 68.0721 20.663 61.7523 19.3998 55.9962L14.809 57.0038ZM15.2425 57.9338C20.7848 65.1312 30.544 71.4589 40.4157 75.6042C45.3838 77.6904 50.4673 79.2613 55.1837 80.1169C59.8678 80.9667 64.3456 81.1397 68.0284 80.2898L66.9716 75.7102C64.1544 76.3603 60.3822 76.2833 56.0227 75.4924C51.6955 74.7074 46.9417 73.2471 42.2354 71.2708C32.7582 67.2911 23.8196 61.3688 18.9663 55.0662L15.2425 57.9338ZM67.7504 80.3366L81.7504 78.8366L81.2496 74.1634L67.2496 75.6634L67.7504 80.3366ZM80.0119 74.6812L69.0119 83.6812L71.9881 87.3188L82.9881 78.3188L80.0119 74.6812ZM72.4553 86.8035C76.7044 80.4299 80.2818 69.8304 82.1838 59.8134C83.1409 54.7722 83.6944 49.7738 83.6781 45.4131C83.6621 41.14 83.1019 37.1444 81.5543 34.3587L77.4457 36.6413C78.3981 38.3556 78.9629 41.36 78.9781 45.4307C78.9931 49.4137 78.4841 54.1028 77.5663 58.9366C75.7182 68.6696 72.2956 78.5701 68.5447 84.1965L72.4553 86.8035ZM46.2982 8.34132C53.6985 8.97927 67.4309 13.5108 73.9241 25.7496L78.0759 23.5469C70.5395 9.34141 54.9392 4.3688 46.7018 3.65868L46.2982 8.34132ZM73.9241 25.7496C75.455 28.6352 76.6024 31.9767 77.1754 35.8444L81.8246 35.1556C81.1742 30.7653 79.8607 26.911 78.0759 23.5469L73.9241 25.7496ZM74.7814 26.6576C78.1437 28.6967 81.5167 33.2279 84.0553 39.8588C86.5668 46.4188 88.15 54.7553 88.15 64H92.85C92.85 54.2447 91.1832 45.3312 88.4447 38.1783C85.7333 31.0962 81.8563 25.4515 77.2186 22.6389L74.7814 26.6576ZM88.5207 62.7332C87.2606 64.7021 85.0829 67.5825 82.7024 69.789C81.5106 70.8938 80.3514 71.7511 79.3058 72.262C78.2476 72.7791 77.5307 72.8354 77.07 72.7202L75.93 77.2798C77.8693 77.7646 79.769 77.2667 81.3692 76.4849C82.982 75.6968 84.5228 74.5103 85.8976 73.236C88.6504 70.6842 91.0728 67.4646 92.4793 65.2668L88.5207 62.7332ZM29.1197 42.2027L49.6197 22.7027L46.3803 19.2973L25.8803 38.7973L29.1197 42.2027ZM46.3383 22.6617L65.8383 42.1617L69.1617 38.8383L49.6617 19.3383L46.3383 22.6617ZM62.6617 33.6617C63.0574 33.266 63.2316 32.8175 63.2821 32.6883C63.3629 32.4819 63.4215 32.276 63.4645 32.1064C63.5519 31.7616 63.6255 31.3605 63.6884 30.9618C63.8161 30.153 63.9307 29.1536 64.026 28.1948C64.2113 26.3292 64.35 24.3367 64.35 24H59.65C59.65 23.9889 59.6289 24.3958 59.5706 25.1728C59.517 25.8882 59.4405 26.8094 59.349 27.7302C59.2568 28.6589 59.1526 29.5533 59.0459 30.2288C58.9917 30.5723 58.9442 30.811 58.9085 30.9518C58.89 31.025 58.8867 31.0232 58.9051 30.976C58.9149 30.9511 58.9422 30.8836 58.9924 30.7933C59.0355 30.7157 59.143 30.5336 59.3383 30.3383L62.6617 33.6617Z" fill="white"/>
<path d="M94.5 46.5C94.5 70.7024 74.0054 90.5 48.5 90.5C22.9946 90.5 2.5 70.7024 2.5 46.5C2.5 22.2976 22.9946 2.5 48.5 2.5C74.0054 2.5 94.5 22.2976 94.5 46.5Z" stroke="white" stroke-width="5"/>
<circle cx="45" cy="40" r="3" fill="white"/>
<circle cx="52" cy="40" r="3" fill="white"/>
<circle cx="52" cy="49" r="3" fill="white"/>
<circle cx="45" cy="49" r="3" fill="white"/>
</svg>
