<svg xmlns="http://www.w3.org/2000/svg" width="129" height="16" fill="none"><path fill="#4F3120" d="M.44 7.78q0-1.3.48-2.56a7.1 7.1 0 0 1 1.44-2.26 7.3 7.3 0 0 1 2.28-1.62Q5.98.72 7.7.72q2.06 0 3.56.86 1.52.84 2.26 2.24l-2.98 2.12a2.4 2.4 0 0 0-.54-.86 2.6 2.6 0 0 0-.72-.54 3.1 3.1 0 0 0-.84-.28 4.4 4.4 0 0 0-.82-.08q-.84 0-1.46.34-.6.32-1 .86a3.9 3.9 0 0 0-.58 1.2q-.18.66-.18 1.32 0 .74.22 1.42t.64 1.2 1.02.84q.62.3 1.38.3.4 0 .82-.08.42-.1.8-.3.4-.22.7-.54.32-.34.5-.82l3.18 1.9q-.32.78-.98 1.4-.64.62-1.48 1.04-.82.42-1.78.64-.94.22-1.84.22-1.58 0-2.9-.62a7.6 7.6 0 0 1-2.26-1.68 7.7 7.7 0 0 1-1.46-2.36 7.3 7.3 0 0 1-.52-2.68m22.593 7.34q-1.62 0-2.94-.62a7.4 7.4 0 0 1-2.26-1.62 7.5 7.5 0 0 1-1.46-2.32 7.2 7.2 0 0 1-.52-2.68q0-1.4.54-2.7t1.5-2.28a7.3 7.3 0 0 1 2.3-1.58q1.34-.6 2.92-.6 1.62 0 2.94.62t2.26 1.64a7.2 7.2 0 0 1 1.44 2.32q.52 1.3.52 2.66 0 1.4-.54 2.7a7.4 7.4 0 0 1-1.5 2.28 7.4 7.4 0 0 1-2.3 1.58q-1.32.6-2.9.6m-3.22-7.2q0 .72.2 1.4.201.66.6 1.18.4.52 1 .84.62.32 1.46.32t1.46-.32a3 3 0 0 0 1-.86q.4-.54.58-1.22a4.87 4.87 0 0 0 0-2.76 3.2 3.2 0 0 0-.62-1.18 2.8 2.8 0 0 0-1.02-.82q-.6-.32-1.42-.32-.84 0-1.46.32-.6.32-1 .86a3.6 3.6 0 0 0-.6 1.2q-.18.66-.18 1.36m13.018 4.18 6.64-7.9h-6.34V.8h10.84v2.9l-6.24 7.9h6.36V15h-11.26zM50.633.8l2.54 6.14 2.6-6.14h4.24l-4.9 9.5V15h-3.88v-4.74L46.413.8zm16.14 7.22V15h-3.9V.8h3.04l5.7 7.22V.8h3.9V15h-3.1zm23.098 3.58V15h-10.12V.8h9.94v3.4h-6.04v2h5.16v3.16h-5.16v2.24zm12.214-6.16q-.6-.36-1.24-.64a10 10 0 0 0-1.22-.44 4.1 4.1 0 0 0-1.3-.22q-.52 0-.84.16-.3.16-.3.54 0 .28.18.46t.52.34q.34.14.82.28.5.14 1.12.34.98.3 1.76.66.8.36 1.36.86.56.48.86 1.18t.3 1.7q0 1.28-.48 2.16a3.76 3.76 0 0 1-1.24 1.38q-.76.52-1.74.76-.96.22-1.94.22-.78 0-1.6-.12a14 14 0 0 1-1.64-.34 15 15 0 0 1-1.56-.52q-.74-.3-1.38-.68l1.68-3.42q.7.44 1.46.78.639.3 1.44.54.82.24 1.66.24.64 0 .88-.16.26-.18.26-.46 0-.3-.26-.5-.24-.22-.68-.38a14 14 0 0 0-1.02-.32 24 24 0 0 1-1.2-.38 11 11 0 0 1-1.62-.68 4.7 4.7 0 0 1-1.12-.84 3.2 3.2 0 0 1-.66-1.08q-.2-.6-.2-1.38 0-1.18.42-2.08.44-.9 1.18-1.5t1.68-.9a6.4 6.4 0 0 1 2.02-.32q.78 0 1.52.16.74.14 1.42.38.7.22 1.3.5.6.26 1.08.5zm16.604-1.24h-4.08V15h-3.9V4.2h-4.1V.8h12.08zm9.68 0h-4.08V15h-3.9V4.2h-4.1V.8h12.08z"/></svg>